<?xml version="1.0" standalone="no"?>
<!DOCTYPE svg PUBLIC "-//W3C//DTD SVG 20010904//EN"
 "http://www.w3.org/TR/2001/REC-SVG-20010904/DTD/svg10.dtd">
<svg version="1.0" xmlns="http://www.w3.org/2000/svg"
 width="234.000000pt" height="234.000000pt" viewBox="0 0 234.000000 234.000000"
 preserveAspectRatio="xMidYMid meet">
<metadata>
Created by potrace 1.14, written by Peter Selinger 2001-2017
</metadata>
<g transform="translate(0.000000,234.000000) scale(0.100000,-0.100000)"
fill="#000000" stroke="none">
<path d="M502 1436 c-18 -6 -49 -27 -68 -45 l-34 -34 0 41 0 41 -45 -1 -45 -1
0 -273 0 -274 45 0 c25 0 45 3 45 8 0 4 1 88 3 187 2 168 4 183 25 216 56 91
193 92 223 2 8 -25 13 -103 13 -225 l1 -188 45 0 45 0 1 183 c1 171 2 186 24
224 42 76 148 99 200 43 35 -38 40 -69 40 -277 l0 -173 45 0 46 0 -1 197 c-1
170 -4 204 -22 250 -27 73 -71 106 -147 109 -71 3 -124 -19 -170 -72 -21 -24
-36 -34 -39 -26 -7 23 -54 72 -81 86 -32 16 -105 17 -149 2z"/>
<path d="M1430 1443 c-26 -5 -86 -45 -107 -73 -10 -12 -12 -8 -13 28 l0 43
-45 -3 -45 -3 0 -272 0 -273 44 0 44 0 4 188 c3 174 5 190 26 223 54 87 179
93 218 10 15 -30 18 -66 18 -228 l0 -193 46 0 46 0 0 180 c1 148 4 186 18 217
24 52 60 76 120 81 62 5 100 -20 116 -76 5 -20 10 -119 10 -219 l0 -183 46 0
45 0 -3 208 c-3 186 -5 212 -24 253 -31 65 -73 93 -148 95 -73 2 -120 -19
-163 -71 l-29 -35 -34 41 c-48 60 -102 78 -190 62z"/>
</g>
</svg>
