<?xml version="1.0" standalone="no"?>
<!DOCTYPE svg PUBLIC "-//W3C//DTD SVG 20010904//EN"
 "http://www.w3.org/TR/2001/REC-SVG-20010904/DTD/svg10.dtd">
<svg version="1.0" xmlns="http://www.w3.org/2000/svg"
 width="2093.000000pt" height="2093.000000pt" viewBox="0 0 2093.000000 2093.000000"
 preserveAspectRatio="xMidYMid meet">
<metadata>
Created by potrace 1.14, written by Peter Selinger 2001-2017
</metadata>
<g transform="translate(0.000000,2093.000000) scale(0.100000,-0.100000)"
fill="#000000" stroke="none">
<path d="M14288 13653 c-265 -29 -591 -82 -609 -100 -15 -15 -15 -478 -1 -501
7 -10 38 -8 153 7 79 11 171 23 204 26 33 4 67 8 75 10 8 2 53 7 100 11 47 3
87 8 90 9 18 10 369 15 444 6 156 -18 277 -94 333 -210 26 -52 28 -65 28 -181
0 -95 -5 -138 -19 -180 -29 -88 -101 -215 -173 -308 -38 -50 -362 -383 -750
-772 l-683 -685 0 -282 0 -283 1140 0 1140 0 0 285 0 285 -774 2 -775 3 392
396 c861 869 899 911 991 1089 75 145 105 276 110 478 7 301 -49 466 -220 644
-134 139 -289 216 -514 254 -73 12 -559 10 -682 -3z"/>
<path d="M8698 12435 c-2 -1 -34 -5 -73 -8 -250 -20 -552 -130 -986 -360 -69
-37 -133 -67 -142 -67 -19 0 -23 13 -37 120 -6 47 -16 118 -22 158 l-11 72
-663 0 -664 0 0 -2345 0 -2345 715 0 715 0 2 1697 3 1697 60 18 c100 30 278
68 356 75 41 5 160 8 264 7 171 0 196 -2 255 -23 120 -42 187 -92 236 -178 15
-26 33 -55 40 -63 10 -12 13 -341 16 -1620 l3 -1605 707 -3 708 -2 2 1697 3
1697 100 28 c199 56 311 71 545 72 200 1 220 -1 290 -23 138 -43 218 -110 262
-220 l23 -56 3 -1597 2 -1598 716 0 716 0 -6 1483 c-7 1488 -11 1939 -22 2097
-15 232 -107 513 -229 705 -49 76 -203 231 -278 278 -158 101 -332 165 -532
197 -72 12 -467 15 -565 5 -351 -37 -803 -192 -1142 -392 -59 -35 -115 -63
-124 -63 -9 0 -50 33 -90 74 -226 228 -382 309 -719 370 -82 15 -425 31 -437
21z"/>
<path d="M14400 8539 c-211 -25 -411 -193 -494 -416 -20 -53 -29 -119 -29
-210 1 -114 11 -162 59 -261 77 -159 209 -277 374 -333 94 -32 287 -32 381 0
192 64 354 228 416 420 20 64 24 224 7 312 -39 204 -200 390 -400 460 -32 12
-69 23 -81 25 -42 8 -179 10 -233 3z"/>
</g>
</svg>
